<svg width="11" height="7" viewBox="0 0 11 7" fill="none" xmlns="http://www.w3.org/2000/svg">
<path d="M0.570864 1.80727L5.12087 6.37081C5.17503 6.42498 5.23371 6.46343 5.29691 6.48618C5.3601 6.50893 5.42781 6.52013 5.50003 6.51977C5.57225 6.51977 5.63996 6.50857 5.70316 6.48618C5.76635 6.4638 5.82503 6.42534 5.8792 6.37081L10.4427 1.80727C10.5691 1.68088 10.6323 1.52289 10.6323 1.33331C10.6323 1.14373 10.5646 0.981226 10.4292 0.845809C10.2938 0.710393 10.1358 0.642684 9.95524 0.642684C9.77469 0.642684 9.6167 0.710393 9.48128 0.84581L5.50003 4.82706L1.51878 0.84581C1.39239 0.719421 1.23657 0.656227 1.05132 0.656227C0.866073 0.656227 0.70592 0.723935 0.570864 0.859352C0.435448 0.994768 0.367739 1.15275 0.367739 1.33331C0.367739 1.51387 0.435448 1.67185 0.570864 1.80727Z" fill="#2E2E2E"/>
</svg>
