<svg width="11" height="7" viewBox="0 0 11 7" fill="none" xmlns="http://www.w3.org/2000/svg">
<path d="M10.4291 5.19273L5.87913 0.629191C5.82497 0.575024 5.76629 0.536566 5.70309 0.513816C5.6399 0.491066 5.57219 0.479872 5.49997 0.480233C5.42775 0.480233 5.36004 0.491427 5.29684 0.513816C5.23365 0.536205 5.17497 0.574663 5.1208 0.629191L0.557259 5.19273C0.43087 5.31912 0.367676 5.47711 0.367676 5.66669C0.367676 5.85627 0.435384 6.01877 0.570801 6.15419C0.706218 6.28961 0.864204 6.35732 1.04476 6.35732C1.22531 6.35732 1.3833 6.28961 1.51872 6.15419L5.49997 2.17294L9.48122 6.15419C9.60761 6.28058 9.76343 6.34377 9.94868 6.34377C10.1339 6.34377 10.2941 6.27607 10.4291 6.14065C10.5646 6.00523 10.6323 5.84725 10.6323 5.66669C10.6323 5.48613 10.5646 5.32815 10.4291 5.19273Z" fill="#2E2E2E"/>
</svg>
