<svg width="21" height="15" viewBox="0 0 21 15" fill="none" xmlns="http://www.w3.org/2000/svg">
<path d="M6.49984 11.865L2.45151 7.81663C2.23337 7.59849 1.93751 7.47594 1.62901 7.47594C1.32051 7.47594 1.02465 7.59849 0.806511 7.81663C0.58837 8.03477 0.46582 8.33064 0.46582 8.63913C0.46582 8.79189 0.495907 8.94314 0.554363 9.08427C0.612819 9.22539 0.698499 9.35362 0.806511 9.46163L5.68318 14.3383C6.13818 14.7933 6.87318 14.7933 7.32818 14.3383L19.6715 1.99497C19.8897 1.77683 20.0122 1.48097 20.0122 1.17247C20.0122 0.863971 19.8897 0.568109 19.6715 0.349968C19.4534 0.131828 19.1575 0.00927734 18.849 0.00927734C18.5405 0.00927734 18.2446 0.131828 18.0265 0.349968L6.49984 11.865Z" fill="#AF88BD"/>
</svg>
